<svg class="main-svg" xmlns="http://www.w3.org/2000/svg" xmlns:xlink="http://www.w3.org/1999/xlink" width="600" height="600" style="" viewBox="0 0 600 600"><rect x="0" y="0" width="600" height="600" style="fill: rgb(255, 255, 255); fill-opacity: 1;"/><defs id="defs-216c4f"><g class="clips"><clipPath id="clip216c4fxyplot" class="plotclip"><rect width="412" height="420"/></clipPath><clipPath class="axesclip" id="clip216c4fx"><rect x="108" y="0" width="412" height="600"/></clipPath><clipPath class="axesclip" id="clip216c4fy"><rect x="0" y="100" width="600" height="420"/></clipPath><clipPath class="axesclip" id="clip216c4fxy"><rect x="108" y="100" width="412" height="420"/></clipPath></g><g class="gradients"/><g class="patterns"/></defs><g class="bglayer"/><g class="layer-below"><g class="imagelayer"/><g class="shapelayer"/></g><g class="cartesianlayer"><g class="subplot xy"><g class="layer-subplot"><g class="shapelayer"/><g class="imagelayer"/></g><g class="minor-gridlayer"><g class="x"/><g class="y"/></g><g class="gridlayer"><g class="x"><path class="xgrid crisp" transform="translate(190.4,0)" d="M0,100v420" style="stroke: rgb(211, 211, 211); stroke-opacity: 1; stroke-width: 1px;"/><path class="xgrid crisp" transform="translate(272.8,0)" d="M0,100v420" style="stroke: rgb(211, 211, 211); stroke-opacity: 1; stroke-width: 1px;"/><path class="xgrid crisp" transform="translate(355.2,0)" d="M0,100v420" style="stroke: rgb(211, 211, 211); stroke-opacity: 1; stroke-width: 1px;"/><path class="xgrid crisp" transform="translate(437.6,0)" d="M0,100v420" style="stroke: rgb(211, 211, 211); stroke-opacity: 1; stroke-width: 1px;"/></g><g class="y"><path class="ygrid crisp" transform="translate(0,467.95)" d="M108,0h412" style="stroke: rgb(211, 211, 211); stroke-opacity: 1; stroke-width: 1px;"/><path class="ygrid crisp" transform="translate(0,393.95)" d="M108,0h412" style="stroke: rgb(211, 211, 211); stroke-opacity: 1; stroke-width: 1px;"/><path class="ygrid crisp" transform="translate(0,319.96000000000004)" d="M108,0h412" style="stroke: rgb(211, 211, 211); stroke-opacity: 1; stroke-width: 1px;"/><path class="ygrid crisp" transform="translate(0,245.96)" d="M108,0h412" style="stroke: rgb(211, 211, 211); stroke-opacity: 1; stroke-width: 1px;"/><path class="ygrid crisp" transform="translate(0,171.95999999999998)" d="M108,0h412" style="stroke: rgb(211, 211, 211); stroke-opacity: 1; stroke-width: 1px;"/></g></g><g class="zerolinelayer"/><g class="layer-between"><g class="shapelayer"/><g class="imagelayer"/></g><path class="xlines-below"/><path class="ylines-below"/><g class="overlines-below"/><g class="xaxislayer-below"/><g class="yaxislayer-below"/><g class="overaxes-below"/><g class="overplot"><g class="xy" transform="translate(108,100)" clip-path="url(#clip216c4fxyplot)"><g class="scatterlayer mlayer"><g class="trace scatter trace1ec750" style="stroke-miterlimit: 2; opacity: 1;"><g class="fills"/><g class="errorbars"/><g class="lines"><path class="js-line" d="M0,220.18L41.28,220.13L42.11,187.68L45.41,105.78L46.24,91.84L49.54,52.2L50.36,45.25L53.67,24.78L54.49,21L56.14,98.67L56.97,142.62L60.27,268.86L61.1,289.92L64.4,349.19L65.23,359.44L68.53,388.97L69.35,345.81L72.66,189.31L73.48,163.63L76.79,91.97L77.61,79.75L80.91,44.94L81.74,38.8L82.57,39.47L83.39,99.75L86.69,246.02L87.52,270.86L90.82,339.9L91.65,351.76L94.95,385.83L95.78,391.91L102.38,130.9L103.21,113.69L106.51,65.39L107.33,56.99L109.81,37.56L110.64,86.82L113.94,241.58L114.77,267.04L118.07,338.79L118.89,351.07L122.2,386.21L123.02,392.47L123.85,385.51L124.67,328.36L127.98,184.07L128.8,159.47L132.1,91.68L132.93,80.06L136.23,46.79L137.06,40.87L142.84,285L143.66,304.81L146.97,360.35L147.79,369.96L151.09,398.14L151.92,342.12L155.22,191.3L156.05,166.29L159.35,95.78L160.18,83.74L163.48,49.29L164.3,43.17L165.13,64.43L165.96,114.06L169.26,256.06L170.08,280.16L173.39,346.87L174.21,358.33L177.52,391.22L178.34,397.09L183.29,173.48L184.12,150.93L187.42,87.55L188.25,76.67L191.55,45.37L192.38,41.78L194.85,186.36L195.68,220.94L198.98,314.43L199.81,330.36L203.11,375.26L203.94,383.11L205.59,396.05L206.41,368.45L209.72,208.35L210.54,180.81L213.84,104.26L214.67,91.2L217.97,53.96L218.8,47.38L219.62,41.59L220.45,85.32L223.75,242.64L224.58,268.48L227.88,340.76L228.71,353.12L232.01,388.45L232.83,394.72L233.66,393.08L234.48,333.3L237.79,187.69L238.61,163.1L241.92,94.56L242.74,82.82L246.04,49.17L246.87,43.19L252.65,285.38L253.47,305.33L256.78,361.32L257.6,370.99L260.91,399L261.73,348.56L265.03,194.66L265.86,169.44L269.16,98.03L269.99,85.84L273.29,50.97L274.12,44.78L274.94,59.86L275.77,112.59L279.07,255.59L279.9,279.96L283.2,347.16L284.02,358.7L287.33,391.78L288.15,397.68L293.93,152.7L294.76,133.03L298.06,77.88L298.89,68.34L302.19,40.91L303.01,99.04L306.32,248.61L307.14,273.52L310.44,343.7L311.27,355.69L314.57,390.04L315.4,396.14L316.22,373.5L317.05,324.6L320.35,182.87L321.18,158.87L324.48,92.33L325.31,80.89L328.61,48.12L329.43,42.28L334.39,267.44L335.21,289.91L338.52,352.77L339.34,363.57L342.65,394.67L343.47,398.23L345.95,253.45L346.77,218.89L350.08,125.43L350.9,109.51L354.2,64.64L355.03,56.79L356.68,43.86L357.51,74.39L360.81,233.39L361.64,260.76L364.94,336.62L365.76,349.58L369.07,386.53L369.89,393.06L370.72,398.82L371.54,349.97L374.85,195.35L375.67,169.94L378.97,98.38L379.8,86.16L383.1,51.19L383.93,44.98L384.75,52.03L385.58,109.22L388.88,253.7L389.71,278.29L393.01,346.25L393.84,357.91L397.14,391.33L397.96,397.28L403.74,154.23L404.57,134.37L407.87,78.62L408.7,68.99L412,41.09" style="vector-effect: none; fill: none; stroke: rgb(31, 119, 180); stroke-opacity: 1; stroke-width: 2px; opacity: 1;"/></g><g class="points"/><g class="text"/></g><g class="trace scatter traced64f1e" style="stroke-miterlimit: 2; opacity: 1;"><g class="fills"/><g class="errorbars"/><g class="lines"><path class="js-line" d="M0,220.18L41.28,220.18L42.11,218.96L43.76,210.56L44.59,204.02L47.89,167.83L48.71,157.2L56.14,61.5L56.97,59.09L57.8,60.29L58.62,64.58L60.27,80.65L61.1,91.65L65.23,164.08L66.05,180.41L70.18,255.27L71.01,261.66L71.83,264.61L72.66,264.57L74.31,257.28L75.13,250.75L78.44,212.23L79.26,200.61L84.22,135.88L85.04,133.98L85.87,135.2L86.69,139.07L89.17,162.75L90,173.59L95.78,266.99L96.6,280.34L98.25,294.69L99.08,296.29L99.9,294.89L100.73,290.94L103.21,267.54L104.03,256.95L109.81,166.22L110.64,154.33L112.29,143.18L113.11,142.78L113.94,145.22L114.77,150.06L117.24,175.43L118.07,186.5L125.5,294.68L126.32,296.97L127.15,296.13L127.98,292.63L130.45,270.15L131.28,259.74L137.06,169.16L137.88,156.3L139.54,142.93L140.36,141.69L141.19,143.37L142.01,147.57L144.49,171.59L145.31,182.37L152.75,292.47L153.57,295.68L154.4,295.66L155.22,292.85L156.87,280.6L157.7,271.86L161.83,212.92L162.65,199.48L166.78,143.21L167.61,141.09L168.43,142.05L169.26,145.62L171.74,168.33L172.56,178.83L177.52,256.2L178.34,269.92L179.99,290.56L180.82,294.75L181.64,295.55L182.47,293.47L184.12,282.32L184.95,274L188.25,229.17L189.07,216.19L194.03,144.13L194.85,141.12L195.68,141.31L196.51,144.24L198.16,156.7L198.98,165.54L203.11,225.13L203.94,238.67L207.24,288.65L208.06,293.85L208.89,295.51L209.72,294.15L211.37,284.15L212.19,276.27L215.49,232.47L216.32,219.61L221.27,145.47L222.1,141.54L222.93,140.91L223.75,143.15L225.4,154.54L226.23,162.98L230.36,221.51L231.18,234.98L235.31,292.78L236.14,295.35L236.96,294.75L237.79,291.48L239.44,278.5L240.26,269.5L244.39,209.91L245.22,196.45L248.52,147.16L249.35,142.22L250.17,140.78L251,142.3L252.65,152.57L253.47,160.58L256.78,204.96L257.6,217.97L262.56,291.52L263.38,294.99L264.21,295.2L265.03,292.6L266.69,280.67L267.51,272.05L271.64,213.47L272.46,200.07L276.59,143.21L277.42,140.87L278.24,141.65L279.07,145.06L280.72,158.3L281.55,167.44L285.68,227.78L286.5,241.36L289.8,289.97L290.63,294.43L291.45,295.45L292.28,293.55L293.93,282.71L294.76,274.51L298.06,229.96L298.89,217.01L303.84,144.42L304.67,141.19L305.49,141.17L306.32,143.93L307.97,156.13L308.79,164.87L312.92,224.2L313.75,237.72L317.05,288.14L317.88,293.6L318.7,295.49L319.53,294.32L321.18,284.62L322,276.85L325.31,233.34L326.13,220.51L331.09,145.9L331.91,141.72L332.74,140.89L333.56,142.95L335.21,154.07L336.04,162.4L339.34,207.55L340.17,220.65L345.12,292.52L345.95,295.32L346.77,294.92L347.6,291.81L349.25,279.1L350.08,270.19L354.2,210.85L355.03,197.4L358.33,147.67L359.16,142.49L359.98,140.83L360.81,142.16L362.46,152.14L363.29,160.04L366.59,204.15L367.41,217.13L372.37,291.2L373.19,294.9L374.02,295.32L374.85,292.89L376.5,281.22L377.32,272.71L380.63,227.44L381.45,214.4L386.4,143.53L387.23,140.96L388.06,141.54L388.88,144.8L390.53,157.78L391.36,166.81L395.49,226.9L396.31,240.47L399.62,289.56L400.44,294.27L401.27,295.49L402.09,293.78L403.74,283.21L404.57,275.12L407.87,230.82L408.7,217.9L412,163.67" style="vector-effect: none; fill: none; stroke: rgb(44, 160, 44); stroke-opacity: 1; stroke-dasharray: 3px, 3px; stroke-width: 2px; opacity: 1;"/></g><g class="points"/><g class="text"/></g><g class="trace scatter trace28b681" style="stroke-miterlimit: 2; opacity: 1;"><g class="fills"/><g class="errorbars"/><g class="lines"><path class="js-line" d="M0,220.18L412,220.18" style="vector-effect: none; fill: none; stroke: rgb(255, 127, 14); stroke-opacity: 1; stroke-dasharray: 3px, 3px; stroke-width: 2px; opacity: 1;"/></g><g class="points"/><g class="text"/></g><g class="trace scatter trace1c5470" style="stroke-miterlimit: 2; opacity: 1;"><g class="fills"/><g class="errorbars"/><g class="lines"><path class="js-line" d="M0,217.9L43.76,217.16L44.59,216L46.24,211.48L47.06,208.21L51.19,186.69L52.02,181.7L59.45,133.94L60.27,132.54L61.92,132.68L62.75,133.66L65.23,138.67L66.05,141.22L68.53,152.76L69.35,157.88L72.66,176.54L73.48,178.75L75.13,180.23L75.96,180.11L78.44,178.64L79.26,177.77L80.91,174.74L81.74,172.43L85.87,158.59L86.69,158.16L88.34,160.9L89.17,163.52L93.3,180.94L94.12,185.42L98.25,214.87L99.08,220.37L101.56,229.5L102.38,230.32L104.03,230.34L104.86,229.95L106.51,228.43L107.33,227.07L109.81,219.45L110.64,215.75L113.11,205.62L113.94,204.13L114.77,203.88L115.59,204.7L118.07,210.53L118.89,212.89L122.2,225.2L123.02,229.5L127.98,254.62L128.8,255.42L130.45,254.26L131.28,252.9L134.58,244.99L135.41,242.01L138.71,224.39L139.54,219.5L142.01,210.63L142.84,210.07L144.49,211.27L145.31,212.46L147.79,217.17L148.62,219.38L151.09,229.32L151.92,233.68L154.4,245.46L155.22,247.4L156.05,248.05L156.87,247.6L159.35,242.67L160.18,240.53L162.65,232.41L163.48,228.73L169.26,199.25L170.08,198.37L171.74,199.23L172.56,200.38L175.04,205.07L175.86,207.26L178.34,217.13L179.17,221.54L182.47,236.55L183.29,237.65L184.12,237.6L184.95,236.71L188.25,229.69L189.07,227.36L191.55,217.45L192.38,213.02L195.68,195.19L196.51,192.96L198.16,192.13L198.98,193L202.28,199.64L203.11,201.98L205.59,212.16L206.41,216.71L209.72,233.53L210.54,235.25L211.37,235.76L212.19,235.33L214.67,231.27L215.49,229.51L217.97,222.16L218.8,218.65L223.75,194.66L224.58,193.54L225.4,193.56L226.23,194.41L229.53,201.29L230.36,203.62L232.83,213.63L233.66,218.1L236.96,235.7L237.79,237.79L239.44,238.43L240.26,237.52L243.57,231L244.39,228.7L246.87,218.57L247.7,214.08L251,197.88L251.82,196.39L252.65,196.09L253.47,196.71L255.95,201.18L256.78,203.08L259.25,210.95L260.08,214.64L265.03,239.17L265.86,240.29L266.69,240.3L267.51,239.49L270.81,232.98L271.64,230.73L274.12,220.9L274.94,216.48L278.24,199.64L279.07,197.84L279.9,197.27L280.72,197.69L283.2,201.87L284.02,203.69L286.5,211.15L287.33,214.67L292.28,239.53L293.11,240.92L293.93,241.14L294.76,240.47L297.23,235.99L298.06,234.08L300.54,226.12L301.36,222.37L306.32,198.29L307.14,197.36L308.79,198.39L309.62,199.72L312.92,207.28L313.75,210.05L316.22,221.77L317.05,226.62L319.53,238.52L320.35,240.25L321.18,240.76L322,240.29L324.48,236.01L325.31,234.16L327.78,226.55L328.61,222.97L333.56,198.36L334.39,197.13L335.21,197.03L336.04,197.77L338.52,202.26L339.34,204.16L341.82,212.22L342.65,216L347.6,239.99L348.42,240.88L350.08,239.78L350.9,238.41L354.2,230.68L355.03,227.86L357.51,215.96L358.33,211.08L360.81,199.35L361.64,197.72L362.46,197.29L363.29,197.8L365.76,202.03L366.59,203.86L369.07,211.46L369.89,215.05L374.85,239.16L375.67,240.23L376.5,240.17L377.32,239.31L380.63,232.59L381.45,230.29L383.93,220.34L384.75,215.89L388.06,198.39L388.88,196.33L390.53,195.75L391.36,196.68L394.66,203.34L395.49,205.69L397.96,215.95L398.79,220.49L402.09,236.6L402.92,238.04L403.74,238.3L404.57,237.65L407.05,233.2L407.87,231.31L410.35,223.47L411.17,219.78L412,215.52" style="vector-effect: none; fill: none; stroke: rgb(214, 39, 40); stroke-opacity: 1; stroke-width: 2px; opacity: 1;"/></g><g class="points"/><g class="text"/></g><g class="trace scatter trace67c3ca" style="stroke-miterlimit: 2; opacity: 1;"><g class="fills"/><g class="errorbars"/><g class="lines"><path class="js-line" d="M0,217.9L412,217.9" style="vector-effect: none; fill: none; stroke: rgb(148, 103, 189); stroke-opacity: 1; stroke-dasharray: 9px, 9px; stroke-width: 2px; opacity: 1;"/></g><g class="points"/><g class="text"/></g></g></g></g><path class="xlines-above crisp" d="M107,520.5H521M107,99.5H521" style="fill: none; stroke-width: 1px; stroke: rgb(0, 0, 0); stroke-opacity: 1;"/><path class="ylines-above crisp" d="M107.5,100V520M520.5,100V520" style="fill: none; stroke-width: 1px; stroke: rgb(0, 0, 0); stroke-opacity: 1;"/><g class="overlines-above"/><g class="xaxislayer-above"><path class="xtick ticks crisp" d="M0,521v5" transform="translate(108,0)" style="stroke: rgb(68, 68, 68); stroke-opacity: 1; stroke-width: 1px;"/><path class="xtick ticks crisp" d="M0,521v5" transform="translate(190.4,0)" style="stroke: rgb(68, 68, 68); stroke-opacity: 1; stroke-width: 1px;"/><path class="xtick ticks crisp" d="M0,521v5" transform="translate(272.8,0)" style="stroke: rgb(68, 68, 68); stroke-opacity: 1; stroke-width: 1px;"/><path class="xtick ticks crisp" d="M0,521v5" transform="translate(355.2,0)" style="stroke: rgb(68, 68, 68); stroke-opacity: 1; stroke-width: 1px;"/><path class="xtick ticks crisp" d="M0,521v5" transform="translate(437.6,0)" style="stroke: rgb(68, 68, 68); stroke-opacity: 1; stroke-width: 1px;"/><path class="xtick ticks crisp" d="M0,521v5" transform="translate(520,0)" style="stroke: rgb(68, 68, 68); stroke-opacity: 1; stroke-width: 1px;"/><g class="xtick"><text text-anchor="middle" x="0" y="547.6" transform="translate(108,0)" style="font-family: 'Open Sans', verdana, arial, sans-serif; font-size: 18px; fill: rgb(42, 63, 95); fill-opacity: 1; white-space: pre; opacity: 1;">0</text></g><g class="xtick"><text text-anchor="middle" x="0" y="547.6" style="font-family: 'Open Sans', verdana, arial, sans-serif; font-size: 18px; fill: rgb(42, 63, 95); fill-opacity: 1; white-space: pre; opacity: 1;" transform="translate(190.4,0)">0.2</text></g><g class="xtick"><text text-anchor="middle" x="0" y="547.6" style="font-family: 'Open Sans', verdana, arial, sans-serif; font-size: 18px; fill: rgb(42, 63, 95); fill-opacity: 1; white-space: pre; opacity: 1;" transform="translate(272.8,0)">0.4</text></g><g class="xtick"><text text-anchor="middle" x="0" y="547.6" style="font-family: 'Open Sans', verdana, arial, sans-serif; font-size: 18px; fill: rgb(42, 63, 95); fill-opacity: 1; white-space: pre; opacity: 1;" transform="translate(355.2,0)">0.6</text></g><g class="xtick"><text text-anchor="middle" x="0" y="547.6" style="font-family: 'Open Sans', verdana, arial, sans-serif; font-size: 18px; fill: rgb(42, 63, 95); fill-opacity: 1; white-space: pre; opacity: 1;" transform="translate(437.6,0)">0.8</text></g><g class="xtick"><text text-anchor="middle" x="0" y="547.6" style="font-family: 'Open Sans', verdana, arial, sans-serif; font-size: 18px; fill: rgb(42, 63, 95); fill-opacity: 1; white-space: pre; opacity: 1;" transform="translate(520,0)">1</text></g></g><g class="yaxislayer-above"><path class="ytick ticks crisp" d="M107,0h-5" transform="translate(0,467.95)" style="stroke: rgb(68, 68, 68); stroke-opacity: 1; stroke-width: 1px;"/><path class="ytick ticks crisp" d="M107,0h-5" transform="translate(0,393.95)" style="stroke: rgb(68, 68, 68); stroke-opacity: 1; stroke-width: 1px;"/><path class="ytick ticks crisp" d="M107,0h-5" transform="translate(0,319.96000000000004)" style="stroke: rgb(68, 68, 68); stroke-opacity: 1; stroke-width: 1px;"/><path class="ytick ticks crisp" d="M107,0h-5" transform="translate(0,245.96)" style="stroke: rgb(68, 68, 68); stroke-opacity: 1; stroke-width: 1px;"/><path class="ytick ticks crisp" d="M107,0h-5" transform="translate(0,171.95999999999998)" style="stroke: rgb(68, 68, 68); stroke-opacity: 1; stroke-width: 1px;"/><g class="ytick"><text text-anchor="end" x="98.4" y="6.3" transform="translate(0,467.95)" style="font-family: 'Open Sans', verdana, arial, sans-serif; font-size: 18px; fill: rgb(42, 63, 95); fill-opacity: 1; white-space: pre; opacity: 1;">−0.6</text></g><g class="ytick"><text text-anchor="end" x="98.4" y="6.3" style="font-family: 'Open Sans', verdana, arial, sans-serif; font-size: 18px; fill: rgb(42, 63, 95); fill-opacity: 1; white-space: pre; opacity: 1;" transform="translate(0,393.95)">−0.55</text></g><g class="ytick"><text text-anchor="end" x="98.4" y="6.3" style="font-family: 'Open Sans', verdana, arial, sans-serif; font-size: 18px; fill: rgb(42, 63, 95); fill-opacity: 1; white-space: pre; opacity: 1;" transform="translate(0,319.96000000000004)">−0.5</text></g><g class="ytick"><text text-anchor="end" x="98.4" y="6.3" style="font-family: 'Open Sans', verdana, arial, sans-serif; font-size: 18px; fill: rgb(42, 63, 95); fill-opacity: 1; white-space: pre; opacity: 1;" transform="translate(0,245.96)">−0.45</text></g><g class="ytick"><text text-anchor="end" x="98.4" y="6.3" style="font-family: 'Open Sans', verdana, arial, sans-serif; font-size: 18px; fill: rgb(42, 63, 95); fill-opacity: 1; white-space: pre; opacity: 1;" transform="translate(0,171.95999999999998)">−0.4</text></g></g><g class="overaxes-above"/></g></g><g class="polarlayer"/><g class="smithlayer"/><g class="ternarylayer"/><g class="geolayer"/><g class="funnelarealayer"/><g class="pielayer"/><g class="iciclelayer"/><g class="treemaplayer"/><g class="sunburstlayer"/><g class="glimages"/><defs id="topdefs-216c4f"><g class="clips"/><clipPath id="legend216c4f"><rect width="108" height="142" x="1" y="1"/></clipPath></defs><g class="layer-above"><g class="imagelayer"/><g class="shapelayer"/></g><g class="infolayer"><g class="legend" pointer-events="all" transform="translate(405.88,104.2)"><rect class="bg" shape-rendering="crispEdges" width="109" height="143" x="0.5" y="0.5" style="stroke: rgb(0, 0, 0); stroke-opacity: 1; fill: rgb(255, 255, 255); fill-opacity: 1; stroke-width: 1px;"/><g class="scrollbox" transform="" clip-path="url(#legend216c4f)"><g class="groups"><g class="traces" transform="translate(1,19.200000000000003)" style="opacity: 1;"><text class="legendtext" text-anchor="start" x="40" y="7.0200000000000005" style="font-family: 'Open Sans', verdana, arial, sans-serif; font-size: 18px; fill: rgb(42, 63, 95); fill-opacity: 1; white-space: pre;">gfli_a</text><g class="layers" style="opacity: 1;"><g class="legendfill"/><g class="legendlines"><path class="js-line" d="M5,0h30" style="fill: none; stroke: rgb(31, 119, 180); stroke-opacity: 1; stroke-width: 2px;"/></g><g class="legendsymbols"><g class="legendpoints"/></g></g><rect class="legendtoggle" x="0" y="-13.200000000000001" width="102.15625" height="26.400000000000002" style="fill: rgb(0, 0, 0); fill-opacity: 0;"/></g><g class="traces" transform="translate(1,45.6)" style="opacity: 1;"><text class="legendtext" text-anchor="start" x="40" y="7.0200000000000005" style="font-family: 'Open Sans', verdana, arial, sans-serif; font-size: 18px; fill: rgb(42, 63, 95); fill-opacity: 1; white-space: pre;">gfli_e</text><g class="layers" style="opacity: 1;"><g class="legendfill"/><g class="legendlines"><path class="js-line" d="M5,0h30" style="fill: none; stroke: rgb(44, 160, 44); stroke-opacity: 1; stroke-dasharray: 3px, 3px; stroke-width: 2px;"/></g><g class="legendsymbols"><g class="legendpoints"/></g></g><rect class="legendtoggle" x="0" y="-13.200000000000001" width="102.15625" height="26.400000000000002" style="fill: rgb(0, 0, 0); fill-opacity: 0;"/></g><g class="traces" transform="translate(1,72)" style="opacity: 1;"><text class="legendtext" text-anchor="start" x="40" y="7.0200000000000005" style="font-family: 'Open Sans', verdana, arial, sans-serif; font-size: 18px; fill: rgb(42, 63, 95); fill-opacity: 1; white-space: pre;">gfli_d</text><g class="layers" style="opacity: 1;"><g class="legendfill"/><g class="legendlines"><path class="js-line" d="M5,0h30" style="fill: none; stroke: rgb(255, 127, 14); stroke-opacity: 1; stroke-dasharray: 3px, 3px; stroke-width: 2px;"/></g><g class="legendsymbols"><g class="legendpoints"/></g></g><rect class="legendtoggle" x="0" y="-13.200000000000001" width="102.15625" height="26.400000000000002" style="fill: rgb(0, 0, 0); fill-opacity: 0;"/></g><g class="traces" transform="translate(1,98.4)" style="opacity: 1;"><text class="legendtext" text-anchor="start" x="40" y="7.0200000000000005" style="font-family: 'Open Sans', verdana, arial, sans-serif; font-size: 18px; fill: rgb(42, 63, 95); fill-opacity: 1; white-space: pre;">gfmi_c</text><g class="layers" style="opacity: 1;"><g class="legendfill"/><g class="legendlines"><path class="js-line" d="M5,0h30" style="fill: none; stroke: rgb(214, 39, 40); stroke-opacity: 1; stroke-width: 2px;"/></g><g class="legendsymbols"><g class="legendpoints"/></g></g><rect class="legendtoggle" x="0" y="-13.200000000000001" width="102.15625" height="26.400000000000002" style="fill: rgb(0, 0, 0); fill-opacity: 0;"/></g><g class="traces" transform="translate(1,124.80000000000001)" style="opacity: 1;"><text class="legendtext" text-anchor="start" x="40" y="7.0200000000000005" style="font-family: 'Open Sans', verdana, arial, sans-serif; font-size: 18px; fill: rgb(42, 63, 95); fill-opacity: 1; white-space: pre;">gfmi_e</text><g class="layers" style="opacity: 1;"><g class="legendfill"/><g class="legendlines"><path class="js-line" d="M5,0h30" style="fill: none; stroke: rgb(148, 103, 189); stroke-opacity: 1; stroke-dasharray: 9px, 9px; stroke-width: 2px;"/></g><g class="legendsymbols"><g class="legendpoints"/></g></g><rect class="legendtoggle" x="0" y="-13.200000000000001" width="102.15625" height="26.400000000000002" style="fill: rgb(0, 0, 0); fill-opacity: 0;"/></g></g></g><rect class="scrollbar" rx="20" ry="3" width="0" height="0" x="0" y="0" style="fill: rgb(128, 139, 164); fill-opacity: 1;"/></g><g class="g-gtitle"><text class="gtitle" x="300" y="72" text-anchor="middle" dy="0.7em" style="opacity: 1; font-family: 'Open Sans', verdana, arial, sans-serif; font-size: 24px; fill: rgb(0, 0, 0); fill-opacity: 1; white-space: pre;">DC_oscillation</text></g><g class="g-xtitle"><text class="xtitle" x="314" y="581.509375" text-anchor="middle" style="opacity: 1; font-family: 'Open Sans', verdana, arial, sans-serif; font-size: 22px; fill: rgb(42, 63, 95); fill-opacity: 1; white-space: pre;">Time [s]</text></g><g class="g-ytitle" transform="translate(1.4189453125,0)"><text class="ytitle" transform="rotate(-90,20.581249999999997,310)" x="20.581249999999997" y="310" text-anchor="middle" style="opacity: 1; font-family: 'Open Sans', verdana, arial, sans-serif; font-size: 22px; fill: rgb(42, 63, 95); fill-opacity: 1; white-space: pre;">i_bus_d</text></g></g></svg>