<svg class="main-svg" xmlns="http://www.w3.org/2000/svg" xmlns:xlink="http://www.w3.org/1999/xlink" width="600" height="600" style="" viewBox="0 0 600 600"><rect x="0" y="0" width="600" height="600" style="fill: rgb(255, 255, 255); fill-opacity: 1;"/><defs id="defs-eca8d3"><g class="clips"><clipPath id="clipeca8d3xyplot" class="plotclip"><rect width="427" height="420"/></clipPath><clipPath class="axesclip" id="clipeca8d3x"><rect x="93" y="0" width="427" height="600"/></clipPath><clipPath class="axesclip" id="clipeca8d3y"><rect x="0" y="100" width="600" height="420"/></clipPath><clipPath class="axesclip" id="clipeca8d3xy"><rect x="93" y="100" width="427" height="420"/></clipPath></g><g class="gradients"/><g class="patterns"/></defs><g class="bglayer"/><g class="layer-below"><g class="imagelayer"/><g class="shapelayer"/></g><g class="cartesianlayer"><g class="subplot xy"><g class="layer-subplot"><g class="shapelayer"/><g class="imagelayer"/></g><g class="minor-gridlayer"><g class="x"/><g class="y"/></g><g class="gridlayer"><g class="x"><path class="xgrid crisp" transform="translate(178.4,0)" d="M0,100v420" style="stroke: rgb(211, 211, 211); stroke-opacity: 1; stroke-width: 1px;"/><path class="xgrid crisp" transform="translate(263.8,0)" d="M0,100v420" style="stroke: rgb(211, 211, 211); stroke-opacity: 1; stroke-width: 1px;"/><path class="xgrid crisp" transform="translate(349.2,0)" d="M0,100v420" style="stroke: rgb(211, 211, 211); stroke-opacity: 1; stroke-width: 1px;"/><path class="xgrid crisp" transform="translate(434.6,0)" d="M0,100v420" style="stroke: rgb(211, 211, 211); stroke-opacity: 1; stroke-width: 1px;"/></g><g class="y"><path class="ygrid crisp" transform="translate(0,466.32)" d="M93,0h427" style="stroke: rgb(211, 211, 211); stroke-opacity: 1; stroke-width: 1px;"/><path class="ygrid crisp" transform="translate(0,411.11)" d="M93,0h427" style="stroke: rgb(211, 211, 211); stroke-opacity: 1; stroke-width: 1px;"/><path class="ygrid crisp" transform="translate(0,355.89)" d="M93,0h427" style="stroke: rgb(211, 211, 211); stroke-opacity: 1; stroke-width: 1px;"/><path class="ygrid crisp" transform="translate(0,300.68)" d="M93,0h427" style="stroke: rgb(211, 211, 211); stroke-opacity: 1; stroke-width: 1px;"/><path class="ygrid crisp" transform="translate(0,245.47)" d="M93,0h427" style="stroke: rgb(211, 211, 211); stroke-opacity: 1; stroke-width: 1px;"/><path class="ygrid crisp" transform="translate(0,190.25)" d="M93,0h427" style="stroke: rgb(211, 211, 211); stroke-opacity: 1; stroke-width: 1px;"/><path class="ygrid crisp" transform="translate(0,135.04)" d="M93,0h427" style="stroke: rgb(211, 211, 211); stroke-opacity: 1; stroke-width: 1px;"/></g></g><g class="zerolinelayer"/><g class="layer-between"><g class="shapelayer"/><g class="imagelayer"/></g><path class="xlines-below"/><path class="ylines-below"/><g class="overlines-below"/><g class="xaxislayer-below"/><g class="yaxislayer-below"/><g class="overaxes-below"/><g class="overplot"><g class="xy" transform="translate(93,100)" clip-path="url(#clipeca8d3xyplot)"><g class="scatterlayer mlayer"><g class="trace scatter trace8052ca" style="stroke-miterlimit: 2; opacity: 1;"><g class="fills"/><g class="errorbars"/><g class="lines"><path class="js-line" d="M0,86.97L41.93,86.97L42.79,21.03L43.64,145.59L44.5,132.35L45.35,104.64L46.21,113.61L47.06,113.19L47.92,114.46L49.63,116.19L50.49,117.26L54.77,122.94L55.62,123.71L59.04,125.46L59.9,125.59L63.32,125.13L64.18,124.86L66.75,123.63L67.6,123.03L74.45,118.29L75.3,117.68L87.28,109.7L88.14,109.21L94.13,106.16L94.98,105.76L106.96,101.18L107.82,100.91L123.22,96.86L124.08,96.68L144.62,93.07L145.47,92.95L171.14,90.11L172,90.03L207.94,87.82L208.79,87.79L251.58,86.54L252.43,86.53L314.05,85.84L314.9,85.84L400.47,85.59L401.33,85.59L427,85.57" style="vector-effect: none; fill: none; stroke: rgb(31, 119, 180); stroke-opacity: 1; stroke-width: 2px; opacity: 1;"/></g><g class="points"/><g class="text"/></g><g class="trace scatter trace204f03" style="stroke-miterlimit: 2; opacity: 1;"><g class="fills"/><g class="errorbars"/><g class="lines"><path class="js-line" d="M0,86.97L41.93,86.97L42.79,21.03L43.64,145.4L44.5,131.73L45.35,103.33L46.21,111.51L47.06,110.16L47.92,110.25L50.49,109.31L51.34,109.28L54.77,107.75L55.62,107.04L59.04,103.06L59.9,101.84L74.45,80.26L75.3,79.33L80.44,74.89L81.29,74.33L86.43,71.95L87.28,71.71L93.27,70.82L94.13,70.79L102.69,71.41L103.54,71.53L145.47,77.52L146.33,77.59L172.85,79.04L173.71,79.07L219.92,79.95L220.77,79.96L320.89,80.38L321.75,80.38L427,80.47" style="vector-effect: none; fill: none; stroke: rgb(44, 160, 44); stroke-opacity: 1; stroke-dasharray: 3px, 3px; stroke-width: 2px; opacity: 1;"/></g><g class="points"/><g class="text"/></g><g class="trace scatter trace366cf0" style="stroke-miterlimit: 2; opacity: 1;"><g class="fills"/><g class="errorbars"/><g class="lines"><path class="js-line" d="M0,86.97L41.93,86.97L42.79,21.04L43.64,145.45L44.5,132.24L45.35,104.15L46.21,113.97L47.92,113.77L48.78,115.25L56.48,124.43L57.33,124.93L60.76,125.67L61.61,125.59L65.89,124.02L66.75,123.66L92.42,106.97L93.27,106.56L104.4,102.04L105.25,101.75L118.94,97.85L119.8,97.64L138.63,93.98L139.48,93.84L166.01,90.57L166.86,90.49L198.53,88.27L199.38,88.22L251.58,86.54L252.43,86.53L314.05,85.84L314.9,85.84L400.47,85.59L401.33,85.59L427,85.57" style="vector-effect: none; fill: none; stroke: rgb(255, 127, 14); stroke-opacity: 1; stroke-dasharray: 3px, 3px; stroke-width: 2px; opacity: 1;"/></g><g class="points"/><g class="text"/></g><g class="trace scatter trace4c9212" style="stroke-miterlimit: 2; opacity: 1;"><g class="fills"/><g class="errorbars"/><g class="lines"><path class="js-line" d="M0,86.97L41.93,86.97L42.79,137.58L44.5,282.27L45.35,330.97L47.06,399L47.92,398.52L49.63,349.19L50.49,321.13L52.2,294.62L53.05,297.49L55.62,319.7L56.48,318.1L58.19,298.85L59.04,286.17L61.61,260.99L62.47,257.67L64.18,251.9L65.03,247.22L68.46,216.49L69.31,208.86L77.87,146.83L78.73,140.71L86.43,93.05L87.28,88.31L93.27,60.2L94.13,56.77L99.26,39.75L100.12,37.5L104.4,28.47L105.25,27.11L108.68,23.12L109.53,22.46L112.95,21.06L113.81,21L117.23,21.85L118.09,22.31L122.37,25.88L123.22,26.82L128.36,33.73L129.21,35.06L137.77,49.88L138.63,51.45L152.32,75.26L153.17,76.56L160.87,86.78L161.73,87.73L168.58,93.96L169.43,94.55L175.42,97.72L176.28,98.04L182.27,99.28L183.12,99.34L189.97,98.87L190.82,98.7L199.38,96.17L200.24,95.85L216.49,88.94L217.35,88.57L231.04,83.73L231.9,83.5L243.02,81.32L243.88,81.22L255,80.59L255.86,80.59L271.26,81.47L272.12,81.55L282.38,82.61L283.24,82.69L314.9,84.96L315.76,84.98L342.28,84.87L343.14,84.85L407.32,84.03L408.17,84.04L427,84.15" style="vector-effect: none; fill: none; stroke: rgb(214, 39, 40); stroke-opacity: 1; stroke-width: 2px; opacity: 1;"/></g><g class="points"/><g class="text"/></g><g class="trace scatter trace18ab20" style="stroke-miterlimit: 2; opacity: 1;"><g class="fills"/><g class="errorbars"/><g class="lines"><path class="js-line" d="M0,86.97L41.93,86.98L42.79,137.58L44.5,282.25L45.35,330.96L47.06,399L47.92,398.53L49.63,349.18L50.49,321.13L52.2,294.6L53.05,297.48L55.62,319.7L56.48,318.06L58.19,298.86L59.04,286.17L61.61,260.98L62.47,257.66L64.18,251.89L65.03,247.23L68.46,216.5L69.31,208.87L77.87,146.85L78.73,140.72L86.43,93.03L87.28,88.29L93.27,60.21L94.13,56.78L99.26,39.76L100.12,37.51L104.4,28.47L105.25,27.11L108.68,23.12L109.53,22.47L112.95,21.06L113.81,21L117.23,21.85L118.09,22.31L122.37,25.89L123.22,26.83L128.36,33.73L129.21,35.06L137.77,49.88L138.63,51.45L152.32,75.26L153.17,76.56L160.87,86.77L161.73,87.72L169.43,94.54L170.29,95.11L176.28,98.04L177.13,98.31L183.98,99.37L184.83,99.36L191.68,98.46L192.54,98.32L201.09,95.53L201.95,95.19L231.04,83.74L231.9,83.51L242.17,81.43L243.02,81.31L255,80.59L255.86,80.59L271.26,81.46L272.12,81.54L309.77,84.78L310.62,84.82L336.29,85L337.15,84.98L427,84.15" style="vector-effect: none; fill: none; stroke: rgb(148, 103, 189); stroke-opacity: 1; stroke-dasharray: 9px, 9px; stroke-width: 2px; opacity: 1;"/></g><g class="points"/><g class="text"/></g></g></g></g><path class="xlines-above crisp" d="M92,520.5H521M92,99.5H521" style="fill: none; stroke-width: 1px; stroke: rgb(0, 0, 0); stroke-opacity: 1;"/><path class="ylines-above crisp" d="M92.5,100V520M520.5,100V520" style="fill: none; stroke-width: 1px; stroke: rgb(0, 0, 0); stroke-opacity: 1;"/><g class="overlines-above"/><g class="xaxislayer-above"><path class="xtick ticks crisp" d="M0,521v5" transform="translate(93,0)" style="stroke: rgb(68, 68, 68); stroke-opacity: 1; stroke-width: 1px;"/><path class="xtick ticks crisp" d="M0,521v5" transform="translate(178.4,0)" style="stroke: rgb(68, 68, 68); stroke-opacity: 1; stroke-width: 1px;"/><path class="xtick ticks crisp" d="M0,521v5" transform="translate(263.8,0)" style="stroke: rgb(68, 68, 68); stroke-opacity: 1; stroke-width: 1px;"/><path class="xtick ticks crisp" d="M0,521v5" transform="translate(349.2,0)" style="stroke: rgb(68, 68, 68); stroke-opacity: 1; stroke-width: 1px;"/><path class="xtick ticks crisp" d="M0,521v5" transform="translate(434.6,0)" style="stroke: rgb(68, 68, 68); stroke-opacity: 1; stroke-width: 1px;"/><path class="xtick ticks crisp" d="M0,521v5" transform="translate(520,0)" style="stroke: rgb(68, 68, 68); stroke-opacity: 1; stroke-width: 1px;"/><g class="xtick"><text text-anchor="middle" x="0" y="547.6" transform="translate(93,0)" style="font-family: 'Open Sans', verdana, arial, sans-serif; font-size: 18px; fill: rgb(42, 63, 95); fill-opacity: 1; white-space: pre; opacity: 1;">0</text></g><g class="xtick"><text text-anchor="middle" x="0" y="547.6" style="font-family: 'Open Sans', verdana, arial, sans-serif; font-size: 18px; fill: rgb(42, 63, 95); fill-opacity: 1; white-space: pre; opacity: 1;" transform="translate(178.4,0)">0.2</text></g><g class="xtick"><text text-anchor="middle" x="0" y="547.6" style="font-family: 'Open Sans', verdana, arial, sans-serif; font-size: 18px; fill: rgb(42, 63, 95); fill-opacity: 1; white-space: pre; opacity: 1;" transform="translate(263.8,0)">0.4</text></g><g class="xtick"><text text-anchor="middle" x="0" y="547.6" style="font-family: 'Open Sans', verdana, arial, sans-serif; font-size: 18px; fill: rgb(42, 63, 95); fill-opacity: 1; white-space: pre; opacity: 1;" transform="translate(349.2,0)">0.6</text></g><g class="xtick"><text text-anchor="middle" x="0" y="547.6" style="font-family: 'Open Sans', verdana, arial, sans-serif; font-size: 18px; fill: rgb(42, 63, 95); fill-opacity: 1; white-space: pre; opacity: 1;" transform="translate(434.6,0)">0.8</text></g><g class="xtick"><text text-anchor="middle" x="0" y="547.6" style="font-family: 'Open Sans', verdana, arial, sans-serif; font-size: 18px; fill: rgb(42, 63, 95); fill-opacity: 1; white-space: pre; opacity: 1;" transform="translate(520,0)">1</text></g></g><g class="yaxislayer-above"><path class="ytick ticks crisp" d="M92,0h-5" transform="translate(0,466.32)" style="stroke: rgb(68, 68, 68); stroke-opacity: 1; stroke-width: 1px;"/><path class="ytick ticks crisp" d="M92,0h-5" transform="translate(0,411.11)" style="stroke: rgb(68, 68, 68); stroke-opacity: 1; stroke-width: 1px;"/><path class="ytick ticks crisp" d="M92,0h-5" transform="translate(0,355.89)" style="stroke: rgb(68, 68, 68); stroke-opacity: 1; stroke-width: 1px;"/><path class="ytick ticks crisp" d="M92,0h-5" transform="translate(0,300.68)" style="stroke: rgb(68, 68, 68); stroke-opacity: 1; stroke-width: 1px;"/><path class="ytick ticks crisp" d="M92,0h-5" transform="translate(0,245.47)" style="stroke: rgb(68, 68, 68); stroke-opacity: 1; stroke-width: 1px;"/><path class="ytick ticks crisp" d="M92,0h-5" transform="translate(0,190.25)" style="stroke: rgb(68, 68, 68); stroke-opacity: 1; stroke-width: 1px;"/><path class="ytick ticks crisp" d="M92,0h-5" transform="translate(0,135.04)" style="stroke: rgb(68, 68, 68); stroke-opacity: 1; stroke-width: 1px;"/><g class="ytick"><text text-anchor="end" x="83.4" y="6.3" transform="translate(0,466.32)" style="font-family: 'Open Sans', verdana, arial, sans-serif; font-size: 18px; fill: rgb(42, 63, 95); fill-opacity: 1; white-space: pre; opacity: 1;">0.35</text></g><g class="ytick"><text text-anchor="end" x="83.4" y="6.3" style="font-family: 'Open Sans', verdana, arial, sans-serif; font-size: 18px; fill: rgb(42, 63, 95); fill-opacity: 1; white-space: pre; opacity: 1;" transform="translate(0,411.11)">0.36</text></g><g class="ytick"><text text-anchor="end" x="83.4" y="6.3" style="font-family: 'Open Sans', verdana, arial, sans-serif; font-size: 18px; fill: rgb(42, 63, 95); fill-opacity: 1; white-space: pre; opacity: 1;" transform="translate(0,355.89)">0.37</text></g><g class="ytick"><text text-anchor="end" x="83.4" y="6.3" style="font-family: 'Open Sans', verdana, arial, sans-serif; font-size: 18px; fill: rgb(42, 63, 95); fill-opacity: 1; white-space: pre; opacity: 1;" transform="translate(0,300.68)">0.38</text></g><g class="ytick"><text text-anchor="end" x="83.4" y="6.3" style="font-family: 'Open Sans', verdana, arial, sans-serif; font-size: 18px; fill: rgb(42, 63, 95); fill-opacity: 1; white-space: pre; opacity: 1;" transform="translate(0,245.47)">0.39</text></g><g class="ytick"><text text-anchor="end" x="83.4" y="6.3" style="font-family: 'Open Sans', verdana, arial, sans-serif; font-size: 18px; fill: rgb(42, 63, 95); fill-opacity: 1; white-space: pre; opacity: 1;" transform="translate(0,190.25)">0.4</text></g><g class="ytick"><text text-anchor="end" x="83.4" y="6.3" style="font-family: 'Open Sans', verdana, arial, sans-serif; font-size: 18px; fill: rgb(42, 63, 95); fill-opacity: 1; white-space: pre; opacity: 1;" transform="translate(0,135.04)">0.41</text></g></g><g class="overaxes-above"/></g></g><g class="polarlayer"/><g class="smithlayer"/><g class="ternarylayer"/><g class="geolayer"/><g class="funnelarealayer"/><g class="pielayer"/><g class="iciclelayer"/><g class="treemaplayer"/><g class="sunburstlayer"/><g class="glimages"/><defs id="topdefs-eca8d3"><g class="clips"/><clipPath id="legendeca8d3"><rect width="108" height="142" x="1" y="1"/></clipPath></defs><g class="layer-above"><g class="imagelayer"/><g class="shapelayer"/></g><g class="infolayer"><g class="legend" pointer-events="all" transform="translate(405.73,104.2)"><rect class="bg" shape-rendering="crispEdges" width="109" height="143" x="0.5" y="0.5" style="stroke: rgb(0, 0, 0); stroke-opacity: 1; fill: rgb(255, 255, 255); fill-opacity: 1; stroke-width: 1px;"/><g class="scrollbox" transform="" clip-path="url(#legendeca8d3)"><g class="groups"><g class="traces" transform="translate(1,19.200000000000003)" style="opacity: 1;"><text class="legendtext" text-anchor="start" x="40" y="7.0200000000000005" style="font-family: 'Open Sans', verdana, arial, sans-serif; font-size: 18px; fill: rgb(42, 63, 95); fill-opacity: 1; white-space: pre;">gfli_a</text><g class="layers" style="opacity: 1;"><g class="legendfill"/><g class="legendlines"><path class="js-line" d="M5,0h30" style="fill: none; stroke: rgb(31, 119, 180); stroke-opacity: 1; stroke-width: 2px;"/></g><g class="legendsymbols"><g class="legendpoints"/></g></g><rect class="legendtoggle" x="0" y="-13.200000000000001" width="102.15625" height="26.400000000000002" style="fill: rgb(0, 0, 0); fill-opacity: 0;"/></g><g class="traces" transform="translate(1,45.6)" style="opacity: 1;"><text class="legendtext" text-anchor="start" x="40" y="7.0200000000000005" style="font-family: 'Open Sans', verdana, arial, sans-serif; font-size: 18px; fill: rgb(42, 63, 95); fill-opacity: 1; white-space: pre;">gfli_e</text><g class="layers" style="opacity: 1;"><g class="legendfill"/><g class="legendlines"><path class="js-line" d="M5,0h30" style="fill: none; stroke: rgb(44, 160, 44); stroke-opacity: 1; stroke-dasharray: 3px, 3px; stroke-width: 2px;"/></g><g class="legendsymbols"><g class="legendpoints"/></g></g><rect class="legendtoggle" x="0" y="-13.200000000000001" width="102.15625" height="26.400000000000002" style="fill: rgb(0, 0, 0); fill-opacity: 0;"/></g><g class="traces" transform="translate(1,72)" style="opacity: 1;"><text class="legendtext" text-anchor="start" x="40" y="7.0200000000000005" style="font-family: 'Open Sans', verdana, arial, sans-serif; font-size: 18px; fill: rgb(42, 63, 95); fill-opacity: 1; white-space: pre;">gfli_d</text><g class="layers" style="opacity: 1;"><g class="legendfill"/><g class="legendlines"><path class="js-line" d="M5,0h30" style="fill: none; stroke: rgb(255, 127, 14); stroke-opacity: 1; stroke-dasharray: 3px, 3px; stroke-width: 2px;"/></g><g class="legendsymbols"><g class="legendpoints"/></g></g><rect class="legendtoggle" x="0" y="-13.200000000000001" width="102.15625" height="26.400000000000002" style="fill: rgb(0, 0, 0); fill-opacity: 0;"/></g><g class="traces" transform="translate(1,98.4)" style="opacity: 1;"><text class="legendtext" text-anchor="start" x="40" y="7.0200000000000005" style="font-family: 'Open Sans', verdana, arial, sans-serif; font-size: 18px; fill: rgb(42, 63, 95); fill-opacity: 1; white-space: pre;">gfmi_c</text><g class="layers" style="opacity: 1;"><g class="legendfill"/><g class="legendlines"><path class="js-line" d="M5,0h30" style="fill: none; stroke: rgb(214, 39, 40); stroke-opacity: 1; stroke-width: 2px;"/></g><g class="legendsymbols"><g class="legendpoints"/></g></g><rect class="legendtoggle" x="0" y="-13.200000000000001" width="102.15625" height="26.400000000000002" style="fill: rgb(0, 0, 0); fill-opacity: 0;"/></g><g class="traces" transform="translate(1,124.80000000000001)" style="opacity: 1;"><text class="legendtext" text-anchor="start" x="40" y="7.0200000000000005" style="font-family: 'Open Sans', verdana, arial, sans-serif; font-size: 18px; fill: rgb(42, 63, 95); fill-opacity: 1; white-space: pre;">gfmi_e</text><g class="layers" style="opacity: 1;"><g class="legendfill"/><g class="legendlines"><path class="js-line" d="M5,0h30" style="fill: none; stroke: rgb(148, 103, 189); stroke-opacity: 1; stroke-dasharray: 9px, 9px; stroke-width: 2px;"/></g><g class="legendsymbols"><g class="legendpoints"/></g></g><rect class="legendtoggle" x="0" y="-13.200000000000001" width="102.15625" height="26.400000000000002" style="fill: rgb(0, 0, 0); fill-opacity: 0;"/></g></g></g><rect class="scrollbar" rx="20" ry="3" width="0" height="0" x="0" y="0" style="fill: rgb(128, 139, 164); fill-opacity: 1;"/></g><g class="g-gtitle"><text class="gtitle" x="300" y="72" text-anchor="middle" dy="0.7em" style="opacity: 1; font-family: 'Open Sans', verdana, arial, sans-serif; font-size: 24px; fill: rgb(0, 0, 0); fill-opacity: 1; white-space: pre;">Load step</text></g><g class="g-xtitle"><text class="xtitle" x="306.5" y="581.509375" text-anchor="middle" style="opacity: 1; font-family: 'Open Sans', verdana, arial, sans-serif; font-size: 22px; fill: rgb(42, 63, 95); fill-opacity: 1; white-space: pre;">Time [s]</text></g><g class="g-ytitle" transform="translate(1.6845703125,0)"><text class="ytitle" transform="rotate(-90,20.315624999999997,310)" x="20.315624999999997" y="310" text-anchor="middle" style="opacity: 1; font-family: 'Open Sans', verdana, arial, sans-serif; font-size: 22px; fill: rgb(42, 63, 95); fill-opacity: 1; white-space: pre;">i_vsc_mag</text></g></g></svg>